# xmcd
# Track frame offsets:
# 150
# 17295
# 47502
# 65960
# 79104
# 102635
# 126677
# 150802
# 161882
# 178520
#
# Disc length: 2639 seconds
# Revision: 0
# Processed by: cddbd v1.4PL0 Copyright (c) Steve Scherf et al.
# Submitted via: VisiTrax 2.9.5.181 - For more info visit www.synapsa.com
#
DISCID=7f0a4d0a
DTITLE=Pearson, Big Pete - One More Drink
DYEAR=2003
DGENRE=
TTITLE0=One More Drink
TTITLE1=Trustworthy Woman
TTITLE2=Muddy Kind Of Love
TTITLE3=24 Hours A Day (A Tribute To T. D. Bell)
TTITLE4=You Know I Love You
TTITLE5=Like A rooster On A Hen
TTITLE6=No Love Lost
TTITLE7=Do Me
TTITLE8=She's Hot, She's Fine
TTITLE9=Catfish and Whiskey
EXTD=Blue Witch Records
EXTT0=The Big Pete Pearson Blues Band\nTom Grills - guitar\nJack Tutt - Bas
EXTT0=s\nAlvietto Robinson - drums\nwith: Dr. Fish Hammond B 3 Organ. Bob Co
EXTT0=rritore - harp (tracks 1, 3 &8]\nJerry Donato - tenor and baritone sax
EXTT0=\nTom Miles - trumpet\nTom Mahon - piano
EXTT1=
EXTT2=
EXTT3=
EXTT4=
EXTT5=
EXTT6=
EXTT7=
EXTT8=
EXTT9=
PLAYORDER=
